{"title":"Death of a Ghost Hunter (2007) WEBRip","uid":8413954,"size":891345481,"categoryP":"video","categoryS":"movies","magnet":"?xt=urn:btih:a8e44f827fee1d2dfe58b1f522d46e0f634ed21b&amp;dn=Death+of+a+Ghost+Hunter+%282007%29+WEBRip&amp;tr=udp%3A%2F%2Ftracker.openbittorrent.com%3A80&amp;tr=udp%3A%2F%2Fopen.demonii.com%3A1337&amp;tr=udp%3A%2F%2Ftracker.coppersurfer.tk%3A6969&amp;tr=udp%3A%2F%2Fexodus.desync.com%3A6969","seeders":0,"leechers":2,"uploader":"RadioResearch","files":3,"time":1366987504,"description":"*******************************************************************************\n                     Death of a Ghost Hunter (2007) WEBRip\n*******************************************************************************\n\n-------------------------------------------------------------------------------\n                              General Information\n-------------------------------------------------------------------------------\nType.................: Movie\n\n\n\nVideo Format.........: AVI\nVideo Bitrate........: 1123\nResolution...........: 640 x 480\nColor................: 8 bit\nFPS..................: 24.000\nSource...............: WEB 4:3\nOriginal Format......: NTSC\nGenre................: Horror\nIMDb Rating..........: 4.5\nMovie Information....: http://www.imdb.com/title/tt1160317/\n\n-------------------------------------------------------------------------------\n                               Post Information\n-------------------------------------------------------------------------------\nPosted by............: RadioResearch\nPosted on............: 4/26/2013\n\n-------------------------------------------------------------------------------\n                                 Release Notes\n-------------------------------------------------------------------------------\nSEEDBOX SUPPORTED!!\n\nRenowned &quot;ghost hunter&quot;, Carter Simms is paid to conduct a paranormal \ninvestigation of a supposedly haunted house. Along with a cameraman, a reporter, \nand a spiritual advocate, she embarks on a three night journey into terror.\n\nEnjoy!\n\nRadioResearch\n\nGeneral\nComplete name                            : G:Death of a Ghost Hunter (2007) \nWEBRipDeath of a Ghost Hunter.avi\nFormat                                   : AVI\nFormat/Info                              : Audio Video Interleave\nFile size                                : 850 MiB\nDuration                                 : 1h 45mn\nOverall bit rate                         : 1 123 Kbps\n\nVideo\nID                                       : 0\nFormat                                   : mp43\nCodec ID                                 : mp43\nDuration                                 : 1h 45mn\nBit rate                                 : 983 Kbps\nWidth                                    : 640 pixels\nHeight                                   : 480 pixels\nDisplay aspect ratio                     : 4:3\nFrame rate                               : 24.000 fps\nBits/(Pixel*Frame)                       : 0.133\nStream size                              : 744 MiB (88%)\n\nAudio\nID                                       : 1\nFormat                                   : MPEG Audio\nFormat version                           : Version 1\nFormat profile                           : Layer 3\nMode                                     : Joint stereo\nMode extension                           : MS Stereo\nCodec ID                                 : 55\nCodec ID/Hint                            : MP3\nDuration                                 : 1h 45mn\nBit rate mode                            : Constant\nBit rate                                 : 128 Kbps\nChannel(s)                               : 2 channels\nSampling rate                            : 44.1 KHz\nCompression mode                         : Lossy\nStream size                              : 96.9 MiB (11%)\nAlignment                                : Aligned on interleaves\nInterleave, duration                     : 26 ms (0.63 video frame)\nWriting library                          : LAME3.98.2\n\n\n\n\n-------------------------------------------------------------------------------\nGenerated with Cool NFO Creator - http://fly.to/coolbeans\n-------------------------------------------------------------------------------\n","torrent":{"xt":"urn:btih:a8e44f827fee1d2dfe58b1f522d46e0f634ed21b","amp;dn":"Death+of+a+Ghost+Hunter+%282007%29+WEBRip","amp;tr":["udp%3A%2F%2Ftracker.openbittorrent.com%3A80","udp%3A%2F%2Fopen.demonii.com%3A1337","udp%3A%2F%2Ftracker.coppersurfer.tk%3A6969","udp%3A%2F%2Fexodus.desync.com%3A6969"],"infoHash":"a8e44f827fee1d2dfe58b1f522d46e0f634ed21b","infoHashBuffer":{"type":"Buffer","data":[168,228,79,130,127,238,29,45,254,88,177,245,34,212,110,15,99,78,210,27]},"announce":[],"urlList":[]}}